<?xml version="1.0" encoding="utf-8"?>
<!-- Generator: Adobe Illustrator 16.0.0, SVG Export Plug-In . SVG Version: 6.00 Build 0)  -->
<svg version="1.2" baseProfile="tiny" id="Layer_1" xmlns="http://www.w3.org/2000/svg" xmlns:xlink="http://www.w3.org/1999/xlink"
	 x="0px" y="0px" width="800px" height="800px" viewBox="0 0 800 800" xml:space="preserve">
<g>
	<g>
		<path fill="#FFFFFF" d="M769.836,399.997c0,204.257-165.579,369.839-369.835,369.839c-204.256,0-369.837-165.582-369.837-369.839
			c0-204.25,165.581-369.833,369.837-369.833C604.257,30.164,769.836,195.747,769.836,399.997"/>
		<g>
			<path fill="#1A1A1A" d="M186.273,651.559c-0.862,0.996-2.634,1.754-4.224,0.379c-1.273-1.104-1.544-2.799-0.406-4.111
				c1.135-1.316,2.981-1.598,4.331-0.422C187.565,648.777,187.133,650.566,186.273,651.559 M201.075,634.95
				c-5.232,6.04-6.199,7.154-7.218,8.496c-1.091,1.42-1.28,2.438-0.578,3.396c0.332,0.501,0.815,0.986,1.293,1.401
				c0.397,0.341,0.565,0.628,0.289,0.948c-0.206,0.24-0.591,0.045-1.227-0.501c-1.511-1.31-3.911-3.597-5.067-4.596
				c-0.991-0.861-3.441-2.771-4.951-4.089c-0.517-0.449-0.764-0.806-0.559-1.046c0.275-0.312,0.583-0.187,0.98,0.154
				c0.398,0.347,0.75,0.58,1.296,0.918c1.246,0.727,2.147,0.329,3.433-0.992c1.182-1.206,2.147-2.317,7.381-8.362l6.06-6.993
				c3.34-3.857,6.059-6.999,7.382-8.844c0.809-1.177,1.151-2.133,0.097-3.327c-0.487-0.563-1.295-1.398-1.89-1.918
				c-0.437-0.373-0.532-0.667-0.358-0.865c0.24-0.275,0.66-0.124,1.097,0.255c2.624,2.276,5.025,4.563,6.1,5.494
				c0.914,0.791,3.521,2.845,5.109,4.22c0.518,0.446,0.693,0.808,0.455,1.084c-0.175,0.198-0.437,0.178-0.912-0.233
				c-0.599-0.517-1.144-0.849-1.572-1.082c-0.934-0.524-1.754-0.06-2.875,0.992c-1.645,1.496-4.365,4.641-7.706,8.493
				L201.075,634.95z"/>
			<path fill="#1A1A1A" d="M180.304,583.761c-3.527-4.042-5.867-4.726-7.61-4.319c-0.949,0.192-1.869,0.58-2.526,0.941
				c-0.469,0.267-0.775,0.396-0.982,0.16c-0.274-0.317-0.067-0.64,0.883-1.469c1.271-1.109,4.296-2.843,5.531-3.43
				c0.887-0.423,1.447-0.423,2.068,0.291c5.777,6.622,11.39,13.461,18.378,21.47c0.381,0.437,0.471,0.776,0.192,1.02
				c-0.277,0.246-0.581,0.297-1.709,0.442c-13.602,2.018-27.686,3.97-40.689,5.952l6.781,7.774c1.766,2.025,3.995,4.336,5.815,4.985
				c1.854,0.681,3.948,0.118,4.962-0.558c0.624-0.406,0.919-0.385,1.129-0.146c0.243,0.279,0.08,0.489-0.399,0.904
				c-0.913,0.793-5.04,3.349-6.4,4.189c-0.627,0.403-0.961,0.418-1.169,0.181c-0.311-0.359-0.282-0.803-1.107-1.831
				c-3.127-3.905-4.828-5.772-6.245-7.399l-10.551-12.095c-0.347-0.396-0.47-0.779-0.271-0.954c0.237-0.207,0.613-0.255,1.031-0.338
				c13.656-2.278,27.995-4.169,41.399-6.015L180.304,583.761z"/>
			<path fill="#1A1A1A" d="M128.859,576.122c-0.853,0.309-1.421,0.272-1.633-0.092c-0.208-0.364-0.139-0.771,0.702-2.044
				l18.5-27.296l-33.176,2.655c-0.939,0.059-1.436,0.037-1.671-0.371c-0.238-0.412,0.058-0.948,0.937-1.636l25.752-20.424
				c2.634-2.068,3.691-3.29,3.312-4.896c-0.355-1.559-0.835-2.492-1.178-3.088c-0.237-0.412-0.375-0.752-0.104-0.913
				c0.365-0.21,0.817,0.259,1.187,0.898c0.658,1.139,4.158,7.503,5.073,9.402c0.517,1.103,0.536,1.452,0.263,1.608
				c-0.228,0.137-0.47,0.03-0.79-0.21c-0.25-0.22-0.919-0.012-2.091,0.903l-18.462,14.323l0.107,0.185l26.421-2.027
				c2.747-0.195,3.29-0.204,3.524,0.208c0.239,0.408-0.409,1.393-1.354,2.913c-1.462,2.302-6.353,9.934-7.311,11.221
				c-0.72,0.96-4.878,7.011-7.372,10.578l0.105,0.187l19.497-8.119c0.873-0.379,1.491-0.678,2.219-1.102
				c0.867-0.498,0.935-1.331,0.668-2.208c-0.292-0.928-0.613-1.588-0.88-2.045c-0.209-0.364-0.301-0.737-0.074-0.868
				c0.409-0.236,0.736,0.122,1.133,0.803c1.105,1.912,2.154,4.043,2.628,4.866c0.5,0.862,1.902,2.969,2.745,4.43
				c0.263,0.453,0.382,0.874-0.027,1.105c-0.229,0.134-0.476-0.086-0.739-0.542c-0.21-0.365-0.397-0.686-0.93-1.289
				c-1.009-1.117-2.998-0.451-4.676,0.216L128.859,576.122z"/>
			<path fill="#1A1A1A" d="M91.334,517.013c-1.235,0.456-3.155,0.266-3.884-1.707c-0.579-1.579,0-3.198,1.631-3.797
				c1.63-0.604,3.378,0.045,3.999,1.719C93.808,515.207,92.57,516.559,91.334,517.013 M112.327,509.616
				c-7.504,2.765-8.886,3.273-10.431,3.955c-1.64,0.717-2.298,1.519-2.146,2.699c0.053,0.597,0.241,1.257,0.458,1.847
				c0.182,0.498,0.192,0.826-0.203,0.969c-0.296,0.113-0.541-0.248-0.83-1.036c-0.692-1.876-1.69-5.047-2.218-6.475
				c-0.455-1.233-1.677-4.09-2.368-5.968c-0.236-0.644-0.281-1.07,0.014-1.183c0.396-0.146,0.603,0.116,0.784,0.607
				c0.185,0.495,0.378,0.874,0.694,1.428c0.738,1.245,1.724,1.33,3.488,0.792c1.618-0.48,3-0.99,10.501-3.758l8.69-3.202
				c4.789-1.766,8.691-3.201,10.741-4.178c1.278-0.641,2.039-1.314,1.692-2.868c-0.157-0.725-0.459-1.851-0.73-2.593
				c-0.2-0.543-0.144-0.839,0.102-0.932c0.347-0.13,0.639,0.211,0.842,0.751c1.199,3.259,2.196,6.423,2.689,7.757
				c0.417,1.138,1.711,4.195,2.44,6.168c0.235,0.645,0.215,1.044-0.132,1.171c-0.246,0.089-0.467-0.053-0.685-0.646
				c-0.272-0.74-0.591-1.294-0.854-1.703c-0.563-0.915-1.509-0.901-2.996-0.521c-2.164,0.519-6.064,1.952-10.853,3.718
				L112.327,509.616z"/>
			<path fill="#1A1A1A" d="M101.235,474.851c-7.824,1.647-9.265,1.95-10.889,2.396c-1.729,0.475-2.465,1.062-2.468,2.836
				c-0.018,0.433,0.114,1.316,0.268,2.035c0.118,0.569,0.082,0.898-0.282,0.979c-0.36,0.074-0.538-0.264-0.7-1.037
				c-0.576-2.727-1.101-6.003-1.329-7.082c-0.369-1.751-1.344-5.627-1.68-7.229c-0.685-3.241-1.101-6.756,0.218-9.935
				c0.679-1.648,2.868-4.262,6.317-4.984c3.809-0.8,7.645,0.056,12.959,4.367c4.802-5.796,8.635-10.312,11.19-14.019
				c2.377-3.511,2.293-5.697,2.284-6.501c-0.013-0.589-0.061-1.061-0.146-1.472c-0.087-0.412,0.024-0.649,0.281-0.706
				c0.411-0.086,0.59,0.252,0.72,0.868l1.028,4.893c0.606,2.883,0.621,4.223,0.184,5.713c-0.721,2.462-2.728,4.93-6.085,8.643
				c-2.397,2.652-5.4,5.758-6.032,6.591c-0.255,0.322-0.241,0.643-0.165,1.007l0.839,4.495c0.055,0.258,0.191,0.394,0.5,0.326
				l0.72-0.151c4.788-1.008,8.853-1.864,10.961-2.575c1.459-0.471,2.529-1.016,2.409-2.602c-0.061-0.794-0.195-1.949-0.326-2.568
				c-0.086-0.409,0.025-0.649,0.282-0.706c0.359-0.073,0.592,0.255,0.733,0.931c0.625,2.983,1.272,6.824,1.437,7.595
				c0.206,0.978,1.043,4.187,1.476,6.246c0.139,0.67,0.061,1.058-0.3,1.138c-0.256,0.054-0.456-0.115-0.584-0.738
				c-0.162-0.77-0.395-1.371-0.594-1.81c-0.424-0.987-1.609-1.008-3.146-0.896c-2.216,0.198-6.284,1.055-11.02,2.051
				L101.235,474.851z M104.024,467.923c0.566-0.122,0.75-0.27,0.83-0.658c0.133-1.161-0.039-2.731-0.309-4.021
				c-0.432-2.06-0.781-2.685-1.644-3.47c-1.457-1.307-4.14-2.302-8.36-1.416c-7.309,1.54-8.402,6.823-7.765,9.864
				c0.272,1.282,0.519,2.198,0.781,2.681c0.178,0.338,0.409,0.395,0.817,0.312L104.024,467.923z"/>
			<path fill="#1A1A1A" d="M103.374,389.769c-2.837-0.13-4.021,0.347-5.572,0.957c-0.859,0.329-12.74,6.854-15.552,8.572
				c-2.006,1.228-3.378,2.48-4,3.455c-0.4,0.67-0.754,1.544-0.784,2.178c-0.018,0.421-0.139,0.785-0.506,0.768
				c-0.315-0.012-0.457-0.391-0.428-1.02c0.041-0.948,0.375-4.88,0.454-6.616c0.048-1.108-0.011-3.269,0.096-5.633
				c0.021-0.524,0.19-0.782,0.507-0.765c0.315,0.015,0.351,0.382,0.525,1.18c0.083,0.477,0.492,0.758,0.915,0.778
				c0.42,0.019,1.062-0.213,1.816-0.548c1.611-0.666,14.605-7.458,16.113-8.233c-1.237-0.582-12.503-7.72-14.098-8.528
				c-1.133-0.578-2.016-0.83-2.701-0.862c-0.524-0.023-1.113,0.166-1.361,1.043c-0.128,0.472-0.255,0.942-0.571,0.927
				c-0.367-0.021-0.46-0.283-0.431-0.921c0.077-1.736,0.312-3.407,0.38-4.931c0.051-1.162,0.049-4.637,0.094-5.63
				c0.024-0.574,0.145-0.941,0.462-0.924c0.368,0.015,0.506,0.443,0.48,1.022c-0.022,0.527,0.142,1.534,0.525,2.34
				c0.478,1.126,1.082,1.733,2.449,2.952c2.025,1.83,14.048,9.739,16.264,10.788c1.855,0.874,3.486,0.951,5.221,1.022l4.31,0.198
				c0.84,0.035,3.046,0.134,5.261,0.077c1.529-0.039,2.706-0.462,2.989-2.027c0.138-0.729,0.293-1.884,0.326-2.619
				c0.027-0.577,0.198-0.833,0.46-0.82c0.367,0.015,0.505,0.444,0.476,1.123c-0.151,3.313-0.455,6.613-0.517,8.038
				c-0.063,1.311-0.052,4.629-0.139,6.575c-0.033,0.738-0.156,1.152-0.578,1.132c-0.262-0.006-0.406-0.281-0.383-0.859
				c0.034-0.731-0.042-1.368-0.126-1.846c-0.163-1.063-1.297-1.585-2.818-1.763c-2.201-0.255-4.41-0.353-5.25-0.392L103.374,389.769
				z"/>
			<path fill="#1A1A1A" d="M76.791,335.628c-0.975-0.217-2.205-1.239-1.84-2.884c0.293-1.339,1.354-2.234,2.742-1.929
				c1.438,0.317,2.353,1.541,2.022,3.034C79.354,335.491,77.871,335.867,76.791,335.628 M79.184,324.785
				c-1.027-0.225-2.258-1.253-1.895-2.895c0.298-1.336,1.358-2.234,2.797-1.917c1.437,0.319,2.353,1.546,2.023,3.034
				C81.747,324.649,80.262,325.025,79.184,324.785 M96.101,349.21c-7.81-1.722-9.249-2.042-10.916-2.302
				c-1.769-0.282-2.684-0.054-3.417,1.564c-0.192,0.388-0.438,1.25-0.595,1.97c-0.125,0.566-0.295,0.851-0.656,0.771
				c-0.358-0.08-0.382-0.459-0.212-1.232c0.6-2.723,1.468-5.92,1.809-7.464c0.274-1.232,0.833-4.507,1.243-6.355
				c0.169-0.771,0.35-1.108,0.708-1.028c0.362,0.077,0.396,0.408,0.284,0.921c-0.124,0.569-0.145,0.887-0.174,1.526
				c-0.052,1.443,0.732,2.047,2.507,2.548c1.622,0.463,3.061,0.783,10.869,2.508l7.194,1.587c7.451,1.646,10.915,0.842,13.526-1.214
				c2.407-1.899,3.136-4.214,3.523-5.962c0.496-2.261,0.391-5.197-1.21-7.704c-2.203-3.449-6.792-4.622-12.087-5.793l-6.419-1.413
				c-7.809-1.728-9.248-2.042-10.916-2.306c-1.771-0.281-2.682-0.051-3.415,1.568c-0.196,0.385-0.439,1.247-0.565,1.81
				c-0.124,0.569-0.296,0.854-0.655,0.773c-0.36-0.077-0.382-0.462-0.222-1.176c0.577-2.617,1.445-5.816,1.455-5.87
				c0.136-0.616,0.698-3.885,1.139-5.899c0.16-0.723,0.34-1.055,0.701-0.979c0.362,0.084,0.396,0.413,0.259,1.028
				c-0.125,0.563-0.142,0.887-0.176,1.523c-0.047,1.443,0.735,2.047,2.508,2.545c1.623,0.469,3.061,0.783,10.87,2.507l5.498,1.215
				c5.706,1.26,11.642,3.165,14.389,8.294c2.329,4.344,2.077,8.163,1.339,11.506c-0.6,2.72-1.842,7.62-6.061,10.622
				c-2.942,2.098-7.175,3.209-14.625,1.567L96.101,349.21z"/>
			<path fill="#1A1A1A" d="M116.675,285.981l0.103-0.246c-1.095-2.406-5.319-12.54-6.371-14.638
				c-1.025-2.035-1.785-3.612-2.606-3.962c-0.533-0.228-0.956-0.178-1.258,0.268c-0.281,0.396-0.462,0.545-0.751,0.423
				c-0.339-0.142-0.334-0.426-0.108-0.953c0.431-1.02,1.704-3.621,2.258-4.928c0.637-1.5,1.62-4.226,2.255-5.74
				c0.208-0.479,0.446-0.782,0.786-0.634c0.341,0.142,0.333,0.427,0.129,0.906c-0.289,0.682-0.608,1.977-0.658,3.041
				c-0.053,1.745,0.265,3.822,1.421,6.767c0.814,2.122,4.983,12.514,6.031,14.898c3.018-0.781,17.258-5.946,19.854-7.078
				c2.937-1.271,6.037-2.528,8.163-4.712c1.196-1.209,1.754-2.118,1.999-2.695c0.145-0.338,0.364-0.591,0.655-0.466
				c0.338,0.146,0.381,0.444-0.009,1.366l-1.786,4.216c-0.615,1.452-0.982,2.323-1.509,3.301c-1.353,2.514-2.972,3.369-5.694,4.676
				c-2.794,1.334-18.026,6.14-19.861,6.558l-0.951,0.226l-0.102,0.245l4.406,1.867c4.459,1.884,8.286,3.506,10.432,4.24
				c1.396,0.48,2.647,0.492,3.355-0.638c0.384-0.637,0.931-1.658,1.197-2.29c0.164-0.388,0.412-0.568,0.656-0.466
				c0.338,0.143,0.319,0.594,0.093,1.13c-1.148,2.717-2.586,5.703-3.099,6.915c-0.471,1.115-1.618,4.223-2.438,6.166
				c-0.267,0.626-0.556,0.904-0.895,0.763c-0.244-0.104-0.306-0.358-0.06-0.94c0.309-0.729,0.455-1.348,0.542-1.824
				c0.218-1.053-0.745-1.746-2.068-2.536c-1.932-1.104-5.759-2.727-10.215-4.611l-8.527-3.608
				c-7.366-3.121-8.721-3.695-10.313-4.252c-1.688-0.605-2.625-0.543-3.643,0.912c-0.261,0.347-0.659,1.149-0.945,1.831
				c-0.225,0.53-0.446,0.779-0.785,0.635c-0.338-0.143-0.292-0.522,0.015-1.248c1.088-2.569,2.526-5.556,3.02-6.724
				c0.491-1.161,1.636-4.272,2.334-5.923c0.288-0.676,0.527-0.978,0.867-0.833c0.339,0.146,0.313,0.475,0.151,0.866
				c-0.207,0.482-0.283,0.797-0.431,1.413c-0.311,1.413,0.349,2.15,2.002,2.966c1.508,0.756,2.867,1.324,10.231,4.444
				L116.675,285.981z"/>
			<path fill="#1A1A1A" d="M154.177,257.975c-0.757,0.519-1.065,0.516-2.046-0.099c-2.452-1.534-5.015-3.39-5.703-3.878
				c-0.641-0.462-1.047-0.904-0.824-1.26c0.252-0.402,0.68-0.195,1.037,0.026c0.578,0.364,1.628,0.771,2.526,1.02
				c3.914,1.088,6.764-0.794,8.493-3.556c2.513-4.015,1.019-7.681-1.345-9.158c-2.184-1.363-4.652-1.982-9.867-0.096l-2.889,1.046
				c-6.905,2.511-11.088,2.246-14.698-0.012c-4.907-3.069-5.861-9.375-1.984-15.573c1.815-2.898,3.432-4.492,4.47-5.455
				c0.341-0.347,0.614-0.483,0.925-0.29c0.581,0.364,1.761,1.351,5.24,3.528c0.981,0.617,1.255,0.97,1.031,1.325
				c-0.194,0.313-0.547,0.281-1.082-0.054c-0.402-0.252-1.923-0.896-3.67-0.685c-1.265,0.139-3.411,0.593-5.226,3.493
				c-2.063,3.298-1.403,6.507,1.271,8.179c2.052,1.285,4.255,1.235,9.38-0.708l1.719-0.661c7.434-2.859,11.713-2.851,15.949-0.198
				c2.587,1.617,5.047,4.521,5.133,9.046c0.033,3.123-1.129,5.87-2.606,8.234C157.793,254.78,156.223,256.591,154.177,257.975"/>
			<path fill="#1A1A1A" d="M160.16,207.306c-6.095-5.18-7.218-6.134-8.569-7.144c-1.432-1.076-2.345-1.301-3.748-0.214
				c-0.354,0.255-0.974,0.901-1.451,1.461c-0.375,0.441-0.659,0.616-0.939,0.376c-0.28-0.239-0.123-0.586,0.39-1.19
				c0.918-1.082,1.945-2.211,2.797-3.213c0.924-1.007,1.75-1.896,2.225-2.459c1.089-1.286,7.866-9.262,8.47-10.06
				c0.569-0.829,1.034-1.538,1.227-1.926c0.128-0.237,0.213-0.581,0.384-0.779c0.172-0.198,0.366-0.106,0.566,0.065
				c0.278,0.24,0.591,0.847,2.333,2.536c0.367,0.376,2.062,1.956,2.475,2.444c0.168,0.214,0.341,0.492,0.104,0.773
				c-0.242,0.285-0.508,0.192-0.871-0.112c-0.282-0.24-0.997-0.776-1.647-0.986c-0.96-0.329-1.784-0.338-3.725,1.463
				c-0.659,0.611-4.314,4.756-4.995,5.557c-0.171,0.201-0.119,0.385,0.163,0.622l10.147,8.613c0.279,0.243,0.475,0.335,0.677,0.095
				c0.75-0.88,4.665-5.494,5.37-6.483c0.737-1.031,1.126-1.736,1.031-2.438c-0.083-0.548-0.146-0.88,0.024-1.078
				c0.136-0.163,0.317-0.217,0.561-0.015c0.24,0.21,0.745,0.915,2.655,2.812c0.767,0.717,2.268,2.201,2.551,2.441
				c0.322,0.267,0.759,0.643,0.455,1.005c-0.238,0.284-0.466,0.226-0.668,0.054c-0.434-0.297-0.957-0.741-1.581-1.064
				c-0.97-0.479-2.049-0.427-3.47,0.919c-0.728,0.693-4.14,4.631-4.956,5.594c-0.17,0.199-0.043,0.374,0.197,0.578l3.169,2.693
				c1.363,1.155,5.018,4.329,6.215,5.277c2.834,2.267,3.983,2.139,7.454-1.95c0.886-1.046,2.317-2.731,2.72-4.181
				c0.406-1.452-0.03-2.652-1.434-4.326c-0.374-0.453-0.467-0.673-0.228-0.951c0.276-0.319,0.594-0.047,0.994,0.291
				c0.923,0.781,3.377,3.419,4.011,4.302c0.805,1.165,0.496,1.529-0.799,3.056c-2.552,3.001-4.505,5.144-6.01,6.829
				c-1.544,1.656-2.639,2.868-3.66,4.071c-0.376,0.438-1.125,1.321-1.902,2.32c-0.782,0.918-1.588,2.033-2.268,2.833
				c-0.443,0.521-0.803,0.699-1.084,0.465c-0.199-0.172-0.183-0.433,0.226-0.918c0.51-0.6,0.838-1.15,1.064-1.577
				c0.521-0.939-0.192-1.887-1.216-3.037c-1.514-1.633-4.683-4.323-8.374-7.455L160.16,207.306z"/>
			<path fill="#1A1A1A" d="M198.066,171.094l0.2-0.175c0.101-2.64,0.862-13.588,0.862-15.941c-0.003-2.272,0.025-4.023-0.554-4.708
				c-0.376-0.441-0.775-0.578-1.244-0.316c-0.43,0.222-0.656,0.277-0.862,0.038c-0.237-0.282-0.104-0.53,0.336-0.892
				c0.838-0.718,3.144-2.475,4.224-3.396c1.243-1.058,3.344-3.056,4.583-4.122c0.401-0.341,0.75-0.498,0.988-0.223
				c0.24,0.281,0.105,0.531-0.295,0.875c-0.561,0.477-1.422,1.492-1.945,2.418c-0.833,1.534-1.476,3.537-1.766,6.685
				c-0.219,2.26-1.145,13.419-1.279,16.021c3.045,0.652,18.09,2.415,20.914,2.563c3.196,0.184,6.532,0.45,9.411-0.549
				c1.61-0.545,2.514-1.107,2.994-1.517c0.279-0.237,0.588-0.361,0.793-0.121c0.237,0.275,0.141,0.568-0.619,1.218l-3.485,2.969
				c-1.2,1.021-1.922,1.633-2.832,2.27c-2.33,1.645-4.161,1.683-7.181,1.63c-3.094-0.06-18.86-2.59-20.691-3.037l-0.951-0.223
				l-0.202,0.172l3.104,3.645c3.141,3.681,5.836,6.845,7.422,8.463c1.036,1.055,2.145,1.626,3.283,0.933
				c0.628-0.396,1.578-1.066,2.098-1.508c0.318-0.272,0.622-0.325,0.793-0.121c0.239,0.275,0.021,0.67-0.42,1.046
				c-2.241,1.911-4.866,3.94-5.867,4.791c-0.922,0.788-3.339,3.056-4.943,4.421c-0.521,0.444-0.904,0.563-1.141,0.281
				c-0.172-0.198-0.116-0.455,0.365-0.865c0.604-0.513,1.015-1.004,1.306-1.39c0.664-0.845,0.116-1.896-0.715-3.193
				c-1.232-1.849-3.927-5.014-7.066-8.7l-6.004-7.046c-5.185-6.086-6.139-7.209-7.313-8.418c-1.24-1.292-2.107-1.659-3.666-0.818
				c-0.388,0.196-1.105,0.735-1.664,1.212c-0.441,0.377-0.75,0.504-0.988,0.223c-0.24-0.281-0.025-0.602,0.575-1.103
				c2.122-1.807,4.746-3.837,5.707-4.655c0.96-0.814,3.382-3.087,4.741-4.261c0.561-0.477,0.911-0.631,1.149-0.355
				c0.238,0.282,0.065,0.566-0.253,0.839c-0.401,0.341-0.606,0.59-1.02,1.072c-0.911,1.123-0.651,2.077,0.464,3.55
				c1.01,1.349,1.965,2.469,7.151,8.552L198.066,171.094z"/>
			<path fill="#1A1A1A" d="M258.934,112.894l-6.976,3.585c-2.707,1.413-3.729,2.196-3.939,3.583
				c-0.132,0.938-0.097,1.62-0.009,2.047c0.087,0.424,0.036,0.682-0.25,0.821c-0.332,0.157-0.538-0.03-0.79-0.552
				c-0.364-0.761-1.535-5.514-1.622-5.938c-0.156-0.679-0.149-1.04,0.134-1.174c0.38-0.181,1.082,0.065,2.313-0.412
				c1.445-0.519,3.292-1.288,4.86-2.038l18.778-9.017c1.518-0.731,2.495-1.378,3.159-1.811c0.644-0.483,0.979-0.758,1.167-0.854
				c0.333-0.154,0.516,0.107,0.859,0.815c0.479,0.995,1.906,4.337,2.498,5.57c0.182,0.501,0.224,0.826-0.061,0.966
				c-0.379,0.178-0.591-0.015-0.979-0.696l-0.299-0.504c-0.685-1.186-2.602-1.899-6.87,0.032l-6.045,2.729l9.338,19.443
				c2.095,4.368,3.895,8.11,5.112,10.036c0.777,1.257,1.564,2.166,3.077,1.675c0.711-0.226,1.8-0.635,2.51-0.973
				c0.522-0.252,0.826-0.222,0.942,0.015c0.158,0.332-0.152,0.658-0.676,0.907c-3.127,1.505-6.184,2.797-7.513,3.434
				c-1.092,0.521-4.012,2.099-5.907,3.014c-0.618,0.294-1.018,0.312-1.176-0.021c-0.114-0.237,0.007-0.468,0.576-0.743
				c0.711-0.341,1.234-0.709,1.617-1.011c0.855-0.643,0.641-1.825,0.123-3.269c-0.72-2.109-2.518-5.855-4.615-10.216
				L258.934,112.894z"/>
			<path fill="#1A1A1A" d="M304.257,107.61c-2.284-7.666-2.704-9.076-3.287-10.661c-0.616-1.686-1.257-2.367-3.026-2.228
				c-0.434,0.021-1.307,0.225-2.012,0.438c-0.556,0.163-0.888,0.154-0.991-0.201c-0.107-0.35,0.216-0.557,0.972-0.782
				c1.362-0.406,2.838-0.794,4.102-1.17c1.324-0.338,2.499-0.638,3.206-0.845c1.614-0.48,11.648-3.473,12.59-3.808
				c0.929-0.389,1.706-0.729,2.079-0.948c0.238-0.128,0.495-0.37,0.745-0.445c0.253-0.073,0.363,0.113,0.438,0.362
				c0.104,0.355,0.032,1.034,0.575,3.401c0.099,0.519,0.66,2.768,0.741,3.404c0.022,0.265,0.012,0.6-0.341,0.699
				c-0.352,0.107-0.529-0.115-0.664-0.571c-0.105-0.35-0.412-1.191-0.844-1.722c-0.624-0.806-1.309-1.256-3.92-0.809
				c-0.886,0.153-6.209,1.633-7.22,1.932c-0.251,0.077-0.306,0.258-0.201,0.61l3.803,12.759c0.106,0.354,0.216,0.54,0.52,0.45
				c1.107-0.329,6.906-2.063,8.036-2.509c1.181-0.46,1.891-0.839,2.193-1.477c0.236-0.509,0.363-0.823,0.612-0.897
				c0.203-0.06,0.385-0.003,0.476,0.3c0.088,0.302,0.129,1.17,0.691,3.805c0.252,1.02,0.702,3.081,0.808,3.437
				c0.121,0.403,0.285,0.957-0.169,1.093c-0.353,0.104-0.512-0.064-0.588-0.319c-0.2-0.489-0.397-1.144-0.742-1.757
				c-0.554-0.934-1.485-1.476-3.41-1.12c-0.99,0.184-5.995,1.624-7.205,1.979c-0.253,0.08-0.243,0.293-0.152,0.596l1.187,3.982
				c0.513,1.715,1.843,6.37,2.331,7.816c1.141,3.449,2.17,3.965,7.314,2.433c1.312-0.392,3.428-1.025,4.561-2.021
				c1.13-0.992,1.417-2.233,1.155-4.406c-0.064-0.586-0.024-0.814,0.331-0.921c0.403-0.125,0.521,0.281,0.671,0.788
				c0.347,1.155,0.964,4.708,1.015,5.787c0.038,1.422-0.415,1.556-2.332,2.125c-3.781,1.128-6.585,1.857-8.769,2.449
				c-2.199,0.549-3.776,0.964-5.288,1.414c-0.556,0.166-1.664,0.494-2.859,0.907c-1.162,0.347-2.44,0.835-3.449,1.137
				c-0.655,0.196-1.055,0.151-1.158-0.204c-0.076-0.252,0.081-0.459,0.687-0.644c0.754-0.225,1.328-0.506,1.753-0.74
				c0.95-0.504,0.869-1.686,0.637-3.212c-0.38-2.192-1.568-6.175-2.95-10.815L304.257,107.61z"/>
			<path fill="#1A1A1A" d="M355.777,97.978l0.261-0.036c1.525-2.156,8.147-10.906,9.434-12.874c1.239-1.908,2.221-3.36,2.105-4.249
				c-0.073-0.575-0.328-0.913-0.864-0.948c-0.481-0.048-0.706-0.122-0.745-0.438c-0.046-0.361,0.202-0.501,0.775-0.572
				c1.095-0.142,3.985-0.353,5.394-0.533c1.616-0.207,4.467-0.731,6.085-0.939c0.521-0.064,0.9-0.009,0.947,0.353
				c0.047,0.368-0.202,0.507-0.725,0.572c-0.727,0.092-2.008,0.468-2.952,0.963c-1.537,0.832-3.17,2.154-5.132,4.634
				c-1.415,1.775-8.292,10.611-9.824,12.718c2.191,2.211,13.83,11.906,16.111,13.577c2.575,1.896,5.224,3.943,8.183,4.676
				c1.647,0.43,2.71,0.453,3.336,0.373c0.364-0.05,0.69,0.015,0.732,0.323c0.047,0.37-0.194,0.56-1.187,0.688l-4.537,0.58
				c-1.566,0.202-2.505,0.323-3.615,0.355c-2.851,0.104-4.407-0.864-6.904-2.56c-2.559-1.739-14.381-12.475-15.671-13.85
				l-0.674-0.711l-0.262,0.038l0.61,4.747c0.617,4.804,1.145,8.925,1.59,11.147c0.29,1.446,0.908,2.536,2.237,2.574
				c0.744,0.009,1.905-0.032,2.584-0.118c0.418-0.054,0.699,0.071,0.733,0.332c0.046,0.361-0.352,0.575-0.926,0.646
				c-2.921,0.377-6.228,0.644-7.532,0.81c-1.201,0.154-4.468,0.729-6.556,0.998c-0.675,0.086-1.062-0.023-1.108-0.385
				c-0.036-0.264,0.154-0.447,0.781-0.527c0.783-0.098,1.396-0.284,1.852-0.447c1.016-0.344,1.129-1.526,1.144-3.064
				c-0.021-2.228-0.549-6.347-1.163-11.146l-1.178-9.186c-1.016-7.929-1.204-9.391-1.521-11.047
				c-0.333-1.76-0.858-2.542-2.625-2.687c-0.431-0.048-1.328,0.009-2.055,0.103c-0.573,0.075-0.901,0.009-0.946-0.355
				c-0.049-0.361,0.305-0.519,1.087-0.612c2.763-0.356,6.071-0.623,7.325-0.78c1.254-0.166,4.519-0.737,6.292-0.972
				c0.729-0.089,1.108-0.029,1.155,0.332c0.046,0.367-0.253,0.507-0.669,0.561c-0.521,0.07-0.829,0.159-1.44,0.35
				c-1.376,0.438-1.68,1.381-1.551,3.218c0.111,1.686,0.298,3.146,1.314,11.075L355.777,97.978z"/>
			<path fill="#1A1A1A" d="M404.635,109.628c-0.148,4.099,0.45,5.506,1.479,5.938c0.871,0.37,1.866,0.485,2.708,0.53
				c0.575,0.038,0.886,0.166,0.865,0.479c-0.027,0.421-0.504,0.495-1.239,0.453c-3.413-0.213-5.502-0.497-6.497-0.56
				c-0.475-0.029-2.952-0.026-5.681-0.192c-0.68-0.038-1.154-0.121-1.122-0.593c0.018-0.317,0.341-0.399,0.865-0.367
				c0.683,0.038,1.629,0.041,2.376-0.119c1.391-0.334,1.695-1.849,2.029-6.411l2.376-31.048c0.063-1.046,0.265-1.771,0.792-1.739
				c0.577,0.032,1.008,0.747,1.843,1.745c0.587,0.721,8.042,9.767,15.239,17.848c3.351,3.789,9.974,11.781,10.815,12.679
				l0.264,0.012l0.918-23.598c0.143-3.207-0.267-4.235-1.496-4.836c-0.768-0.364-2.027-0.441-2.762-0.486
				c-0.632-0.038-0.83-0.207-0.813-0.521c0.027-0.421,0.608-0.441,1.396-0.397c2.729,0.169,5.238,0.483,6.341,0.549
				c0.578,0.035,2.581,0,5.153,0.163c0.684,0.038,1.205,0.127,1.179,0.545c-0.018,0.314-0.344,0.453-0.975,0.415
				c-0.524-0.03-0.942-0.054-1.582,0.063c-1.497,0.328-1.985,1.404-2.217,4.344l-2.607,33.082c-0.071,1.161-0.312,1.618-0.782,1.589
				c-0.578-0.039-1.171-0.652-1.713-1.266c-3.117-3.348-9.413-10.641-14.539-16.38c-5.376-6.024-10.801-12.937-11.685-13.994
				l-0.159-0.009L404.635,109.628z"/>
			<path fill="#1A1A1A" d="M458.488,102.024c2.35-8.684,11.12-18.35,26.351-14.231c12.643,3.414,18.522,12.908,15.381,24.535
				c-3.144,11.624-13.754,18.619-26.649,15.132C458.995,123.519,456.059,111.009,458.488,102.024 M492.603,112.283
				c3.075-11.372-1.568-20.202-9.895-22.454c-5.837-1.576-13.366-0.125-16.788,12.513c-2.854,10.563,0.717,20.522,10.469,23.16
				C479.943,126.458,488.634,126.956,492.603,112.283"/>
			<path fill="#1A1A1A" d="M525.469,129.374c-2.852,6.098-4.388,9.39-3.784,10.715c0.475,1.093,1.556,2,5.274,3.739
				c2.524,1.183,4.405,2.003,6.199,1.271c0.862-0.35,2.056-1.419,2.571-2.278c0.249-0.408,0.48-0.649,0.859-0.469
				c0.335,0.154,0.272,0.416,0.003,0.987c-0.243,0.524-2.246,3.94-3.274,5.144c-0.776,0.916-1.126,1.043-3.603-0.112
				c-3.432-1.603-5.864-2.859-7.985-3.905c-2.102-1.1-3.796-1.95-5.748-2.859c-0.524-0.246-1.571-0.737-2.738-1.224
				c-1.096-0.513-2.38-0.992-3.334-1.438c-0.618-0.29-0.886-0.592-0.729-0.927c0.11-0.237,0.367-0.291,0.936-0.023
				c0.721,0.332,1.334,0.504,1.809,0.609c1.042,0.256,1.771-0.678,2.607-1.973c1.173-1.891,2.931-5.653,4.978-10.039l3.921-8.386
				c3.383-7.244,4.009-8.578,4.624-10.148c0.664-1.662,0.638-2.604-0.778-3.674c-0.338-0.272-0.886-0.584-1.506-0.874
				c-0.524-0.246-0.767-0.478-0.609-0.813c0.153-0.332,0.532-0.275,1.247,0.074c2.239,1.043,5.176,2.593,6.463,3.191
				c1.144,0.533,4.689,2.018,6.547,2.874c0.668,0.314,0.957,0.563,0.798,0.897c-0.153,0.335-0.483,0.297-1.055,0.03
				c-0.524-0.246-1.311-0.558-1.927-0.729c-1.398-0.361-2.157,0.271-3.033,1.894c-0.806,1.484-1.429,2.818-4.815,10.057
				L525.469,129.374z"/>
			<path fill="#1A1A1A" d="M555.783,139.321c5.153-7.375,16.686-13.5,29.625-4.46c10.738,7.503,13.056,18.428,6.154,28.304
				s-19.253,12.859-30.211,5.206C548.975,159.725,550.45,146.96,555.783,139.321 M584.407,160.543
				c6.752-9.66,5.377-19.545-1.698-24.481c-4.96-3.467-12.537-4.658-20.039,6.086c-6.268,8.97-6.279,19.551,2,25.337
				C567.689,169.592,575.701,173.009,584.407,160.543"/>
			<path fill="#1A1A1A" d="M611.199,176.451c5.532-5.771,6.551-6.832,7.642-8.122c1.161-1.363,1.439-2.261,0.441-3.73
				c-0.231-0.367-0.838-1.021-1.369-1.531c-0.418-0.397-0.575-0.693-0.319-0.96c0.257-0.268,0.595-0.09,1.164,0.459
				c2.012,1.929,4.294,4.338,5.28,5.283c0.912,0.874,3.413,3.055,4.896,4.475c0.53,0.51,0.723,0.838,0.468,1.107
				c-0.256,0.265-0.555,0.122-1.01-0.317c-0.419-0.399-0.682-0.58-1.213-0.941c-1.206-0.791-2.127-0.436-3.479,0.82
				c-1.239,1.141-2.259,2.205-7.793,7.974l-6.735,7.025c-1.567,1.636-3.199,3.562-5.019,5.464c-2.078,2.163-4.561,4.447-7.358,5.847
				c-3.016,1.55-7.541,2.243-13.334,0.986c-0.784-0.166-1.686-0.45-2.847-0.833c-0.412-0.103-0.785-0.322-0.975-0.5
				c-0.154-0.148-0.196-0.403-0.016-0.596c0.185-0.192,0.52-0.16,1.491,0.118c0.749,0.208,1.721,0.335,3.206,0.303
				c5.688-0.157,9.292-3.988,16.43-11.429L611.199,176.451z"/>
			<path fill="#1A1A1A" d="M634.661,201.181c6.147-5.107,7.28-6.05,8.506-7.203c1.311-1.224,1.662-2.198,1.126-3.259
				c-0.248-0.546-0.645-1.103-1.049-1.589c-0.338-0.408-0.456-0.714-0.136-0.983c0.243-0.201,0.596,0.054,1.132,0.702
				c1.276,1.538,3.274,4.188,4.246,5.363c0.841,1.011,2.945,3.298,4.222,4.83c0.439,0.524,0.626,0.915,0.383,1.12
				c-0.323,0.267-0.604,0.089-0.942-0.314c-0.334-0.403-0.643-0.693-1.13-1.114c-1.107-0.918-2.064-0.676-3.549,0.421
				c-1.36,0.995-2.495,1.938-8.644,7.044l-7.117,5.913c-3.926,3.263-7.123,5.912-8.726,7.523c-0.993,1.028-1.484,1.918-0.641,3.263
				c0.392,0.634,1.049,1.595,1.553,2.201c0.371,0.445,0.418,0.747,0.214,0.913c-0.281,0.237-0.673,0.012-1.041-0.427
				c-2.219-2.667-4.212-5.321-5.119-6.412c-0.776-0.934-3.014-3.384-4.359-5.002c-0.436-0.527-0.548-0.909-0.267-1.144
				c0.202-0.169,0.457-0.109,0.859,0.377c0.504,0.606,0.99,1.027,1.375,1.321c0.833,0.679,1.722,0.347,2.996-0.504
				c1.866-1.212,5.064-3.867,8.987-7.123L634.661,201.181z M651.974,187.208c1.011-0.839,2.883-1.302,4.229,0.319
				c1.073,1.292,1.066,3.007-0.272,4.119c-1.334,1.107-3.198,1.09-4.338-0.291C650.243,189.737,650.964,188.049,651.974,187.208"/>
			<path fill="#1A1A1A" d="M670.802,253.832c7.126-3.627,8.44-4.291,9.891-5.147c1.546-0.903,2.105-1.665,1.649-3.374
				c-0.1-0.421-0.453-1.245-0.791-1.899c-0.26-0.516-0.311-0.845,0.018-1.014c0.326-0.166,0.591,0.112,0.948,0.817
				c0.643,1.266,1.287,2.649,1.882,3.823c0.575,1.244,1.075,2.343,1.405,3.001c0.764,1.499,5.508,10.833,6.003,11.698
				c0.552,0.842,1.025,1.544,1.306,1.873c0.17,0.213,0.45,0.42,0.572,0.657c0.119,0.234-0.047,0.374-0.277,0.495
				c-0.33,0.166-1.012,0.214-3.239,1.173c-0.492,0.189-2.604,1.147-3.216,1.337c-0.257,0.074-0.586,0.125-0.752-0.207
				c-0.169-0.326,0.021-0.539,0.441-0.753c0.329-0.169,1.103-0.622,1.544-1.144c0.679-0.756,1.002-1.509,0.095-3.995
				c-0.314-0.85-2.721-5.819-3.197-6.758c-0.118-0.231-0.309-0.256-0.637-0.09l-11.861,6.03c-0.329,0.169-0.492,0.308-0.35,0.587
				c0.521,1.034,3.265,6.427,3.905,7.458c0.666,1.075,1.165,1.71,1.847,1.894c0.542,0.139,0.874,0.204,0.992,0.438
				c0.094,0.189,0.074,0.376-0.208,0.519c-0.281,0.147-1.128,0.337-3.611,1.365c-0.964,0.434-2.91,1.245-3.239,1.405
				c-0.377,0.195-0.892,0.459-1.105,0.035c-0.165-0.328-0.029-0.519,0.204-0.637c0.448-0.285,1.059-0.596,1.598-1.043
				c0.818-0.714,1.186-1.725,0.489-3.556c-0.355-0.942-2.666-5.606-3.242-6.732c-0.117-0.231-0.328-0.187-0.61-0.041l-3.707,1.881
				c-1.591,0.812-5.926,2.955-7.265,3.692c-3.186,1.739-3.508,2.848-1.078,7.63c0.621,1.218,1.621,3.188,2.803,4.122
				c1.182,0.933,2.454,0.995,4.542,0.347c0.563-0.172,0.798-0.172,0.963,0.16c0.192,0.37-0.183,0.565-0.652,0.803
				c-1.074,0.545-4.455,1.792-5.51,2.032c-1.387,0.29-1.604-0.13-2.511-1.911c-1.783-3.517-3.001-6.146-3.979-8.185
				c-0.93-2.062-1.62-3.54-2.338-4.948c-0.263-0.513-0.785-1.547-1.404-2.651c-0.548-1.075-1.262-2.246-1.738-3.183
				c-0.309-0.61-0.336-1.011-0.007-1.18c0.234-0.118,0.469-0.003,0.755,0.563c0.359,0.702,0.738,1.218,1.047,1.589
				c0.664,0.844,1.815,0.557,3.269,0.05c2.092-0.768,5.792-2.646,10.106-4.839L670.802,253.832z"/>
			<path fill="#1A1A1A" d="M674.318,303.988c-3.899,1.276-5.014,2.322-5.066,3.437c-0.045,0.951,0.192,1.92,0.436,2.729
				c0.165,0.551,0.153,0.883-0.146,0.978c-0.406,0.118-0.644-0.305-0.854-1.011c-0.98-3.274-1.435-5.333-1.722-6.293
				c-0.137-0.451-0.995-2.776-1.781-5.396c-0.194-0.657-0.281-1.125,0.173-1.259c0.303-0.092,0.491,0.178,0.643,0.685
				c0.198,0.655,0.521,1.55,0.933,2.192c0.796,1.191,2.318,0.948,6.715-0.308l29.969-8.487c1.007-0.302,1.761-0.364,1.912,0.143
				c0.161,0.551-0.354,1.203-1.006,2.332c-0.474,0.8-6.392,10.919-11.493,20.469c-2.402,4.451-7.621,13.429-8.17,14.525l0.074,0.255
				l22.475-7.29c3.059-0.968,3.882-1.706,4.024-3.069c0.071-0.848-0.287-2.054-0.498-2.759c-0.181-0.606-0.091-0.854,0.211-0.941
				c0.403-0.122,0.622,0.414,0.848,1.173c0.785,2.622,1.356,5.084,1.674,6.143c0.166,0.558,0.892,2.424,1.632,4.895
				c0.196,0.652,0.297,1.171-0.108,1.293c-0.3,0.094-0.54-0.166-0.724-0.771c-0.15-0.504-0.272-0.906-0.604-1.466
				c-0.827-1.289-2.004-1.375-4.843-0.578l-31.966,8.97c-1.107,0.331-1.62,0.269-1.754-0.188c-0.169-0.551,0.204-1.321,0.596-2.044
				c2.072-4.08,6.737-12.511,10.359-19.305c3.795-7.123,8.418-14.605,9.105-15.803l-0.045-0.147L674.318,303.988z"/>
			<path fill="#1A1A1A" d="M680.724,357.219c0.268-0.88,0.511-1.069,1.66-1.202c2.874-0.338,6.032-0.498,6.875-0.542
				c0.791-0.042,1.383,0.05,1.43,0.465c0.057,0.474-0.408,0.577-0.826,0.628c-0.679,0.08-1.751,0.421-2.607,0.782
				c-3.73,1.605-4.779,4.856-4.4,8.092c0.558,4.703,4.012,6.626,6.783,6.3c2.56-0.303,4.868-1.369,7.754-6.101l1.597-2.629
				c3.816-6.272,7.24-8.688,11.474-9.186c5.745-0.676,10.438,3.643,11.293,10.907c0.398,3.393,0.136,5.65-0.072,7.049
				c-0.048,0.486-0.175,0.763-0.539,0.804c-0.679,0.083-2.22,0.053-6.293,0.53c-1.149,0.14-1.586,0.029-1.637-0.385
				c-0.041-0.37,0.256-0.566,0.88-0.638c0.47-0.053,2.061-0.507,3.286-1.763c0.901-0.9,2.291-2.602,1.892-5.997
				c-0.453-3.864-2.978-5.953-6.113-5.583c-2.403,0.285-4.089,1.701-6.871,6.425l-0.925,1.588
				c-4.009,6.883-7.349,9.553-12.313,10.136c-3.03,0.359-6.77-0.367-9.667-3.84c-1.978-2.414-2.795-5.286-3.121-8.053
				C679.906,361.979,679.995,359.584,680.724,357.219"/>
			<path fill="#1A1A1A" d="M719.92,408.007l0.051-7.841c-0.006-3.055-0.226-4.329-1.354-5.156c-0.771-0.554-1.393-0.835-1.81-0.953
				c-0.419-0.122-0.623-0.285-0.611-0.6c0.009-0.367,0.275-0.471,0.854-0.45c0.842,0.03,5.594,1.188,6.012,1.31
				c0.679,0.181,0.99,0.347,0.979,0.664c-0.016,0.421-0.558,0.931-0.705,2.24c-0.212,1.521-0.379,3.515-0.439,5.251l-0.693,20.827
				c-0.056,1.681,0.063,2.845,0.143,3.636c0.13,0.791,0.223,1.215,0.217,1.429c-0.013,0.37-0.332,0.411-1.12,0.385
				c-1.105-0.038-4.727-0.317-6.096-0.361c-0.524-0.068-0.835-0.187-0.823-0.501c0.012-0.421,0.278-0.519,1.069-0.542l0.581-0.039
				c1.369-0.056,2.89-1.425,3.149-6.106l0.379-6.619l-21.562-0.714c-4.836-0.163-8.99-0.303-11.263-0.116
				c-1.479,0.113-2.644,0.388-2.907,1.958c-0.13,0.729-0.275,1.885-0.299,2.673c-0.021,0.581-0.187,0.839-0.447,0.83
				c-0.371-0.012-0.516-0.441-0.495-1.02c0.115-3.476,0.383-6.782,0.432-8.249c0.042-1.212-0.006-4.531,0.063-6.635
				c0.023-0.684,0.195-1.045,0.56-1.033c0.261,0.009,0.414,0.222,0.395,0.856c-0.027,0.791,0.056,1.428,0.147,1.898
				c0.175,1.061,1.322,1.416,2.842,1.624c2.198,0.338,6.354,0.471,11.191,0.634L719.92,408.007z"/>
			<path fill="#1A1A1A" d="M703.626,450.396c7.875,1.378,9.328,1.636,11.004,1.816c1.782,0.207,2.75-0.154,3.21-1.25
				c0.258-0.543,0.427-1.206,0.534-1.832c0.091-0.516,0.248-0.806,0.666-0.734c0.309,0.05,0.344,0.485,0.196,1.315
				c-0.348,1.968-1.074,5.206-1.338,6.708c-0.224,1.298-0.606,4.379-0.95,6.351c-0.118,0.679-0.293,1.072-0.607,1.016
				c-0.412-0.071-0.459-0.4-0.371-0.919c0.093-0.521,0.11-0.941,0.116-1.582c-0.012-1.448-0.821-2.015-2.616-2.433
				c-1.643-0.396-3.094-0.651-10.97-2.029l-9.12-1.6c-5.028-0.881-9.123-1.595-11.388-1.778c-1.426-0.089-2.424,0.106-2.9,1.627
				c-0.234,0.705-0.537,1.828-0.673,2.604c-0.098,0.571-0.302,0.803-0.56,0.758c-0.361-0.064-0.444-0.503-0.344-1.075
				c0.599-3.423,1.324-6.658,1.57-8.063c0.207-1.188,0.626-4.479,0.987-6.548c0.118-0.679,0.338-1.014,0.701-0.949
				c0.262,0.042,0.377,0.279,0.27,0.898c-0.136,0.779-0.142,1.42-0.12,1.905c0.025,1.072,0.853,1.538,2.328,1.956
				c2.131,0.64,6.225,1.356,11.254,2.236L703.626,450.396z M725.493,454.548c1.295,0.228,2.859,1.354,2.498,3.425
				c-0.293,1.662-1.606,2.768-3.319,2.465c-1.709-0.296-2.897-1.735-2.589-3.499C722.444,454.87,724.198,454.322,725.493,454.548"/>
			<path fill="#1A1A1A" d="M705.265,496.431l2.223-7.518c0.847-2.934,0.986-4.216,0.133-5.321c-0.59-0.747-1.108-1.188-1.476-1.423
				c-0.367-0.228-0.519-0.444-0.421-0.744c0.112-0.35,0.397-0.363,0.948-0.187c0.797,0.259,5.041,2.691,5.408,2.923
				c0.602,0.355,0.851,0.604,0.755,0.905c-0.134,0.4-0.794,0.738-1.301,1.953c-0.622,1.404-1.34,3.274-1.878,4.922l-6.445,19.803
				c-0.521,1.603-0.729,2.749-0.874,3.532c-0.094,0.8-0.124,1.231-0.189,1.43c-0.112,0.351-0.43,0.307-1.18,0.063
				c-1.051-0.344-4.45-1.615-5.751-2.039c-0.485-0.213-0.753-0.415-0.654-0.711c0.13-0.403,0.414-0.421,1.179-0.223l0.565,0.124
				c1.334,0.324,3.171-0.568,4.721-4.989l2.202-6.249l-20.505-6.677c-4.602-1.495-8.552-2.785-10.783-3.231
				c-1.448-0.303-2.646-0.361-3.336,1.072c-0.326,0.67-0.785,1.736-1.027,2.483c-0.181,0.548-0.413,0.752-0.662,0.672
				c-0.35-0.115-0.369-0.563-0.192-1.107c1.076-3.305,2.253-6.406,2.709-7.805c0.373-1.149,1.25-4.351,1.899-6.353
				c0.212-0.652,0.474-0.955,0.826-0.837c0.249,0.08,0.335,0.332,0.14,0.925c-0.243,0.753-0.338,1.387-0.389,1.866
				c-0.124,1.064,0.877,1.729,2.281,2.348c2.019,0.937,5.968,2.222,10.569,3.719L705.265,496.431z"/>
			<path fill="#1A1A1A" d="M678.938,531.217c7.049,3.777,8.347,4.475,9.882,5.177c1.627,0.752,2.566,0.779,3.714-0.578
				c0.289-0.322,0.758-1.088,1.104-1.73c0.272-0.515,0.519-0.743,0.842-0.565c0.322,0.169,0.242,0.545-0.131,1.241
				c-1.316,2.459-3.02,5.304-3.766,6.694c-0.596,1.113-2.023,4.111-2.916,5.777c-0.373,0.695-0.64,0.975-0.963,0.8
				c-0.325-0.175-0.271-0.501-0.021-0.966c0.272-0.51,0.373-0.813,0.581-1.419c0.438-1.378-0.151-2.169-1.725-3.132
				c-1.435-0.89-2.732-1.585-9.782-5.36l-6.492-3.479c-6.726-3.6-10.275-3.771-13.348-2.494c-2.837,1.171-4.163,3.2-5.008,4.775
				c-1.094,2.045-1.787,4.898-0.925,7.746c1.185,3.918,5.286,6.293,10.06,8.851l5.799,3.105c7.05,3.777,8.351,4.475,9.882,5.177
				c1.627,0.75,2.569,0.779,3.713-0.58c0.291-0.324,0.759-1.086,1.034-1.595c0.272-0.51,0.516-0.738,0.838-0.566
				c0.324,0.175,0.244,0.551-0.104,1.194c-1.268,2.367-2.972,5.216-2.996,5.259c-0.299,0.558-1.727,3.55-2.692,5.366
				c-0.35,0.649-0.617,0.926-0.943,0.751c-0.322-0.175-0.266-0.501,0.033-1.062c0.273-0.51,0.373-0.813,0.578-1.416
				c0.441-1.375-0.148-2.172-1.722-3.135c-1.438-0.884-2.734-1.579-9.784-5.36l-4.96-2.652c-5.15-2.764-10.35-6.201-11.601-11.891
				c-1.063-4.804,0.214-8.419,1.828-11.432c1.316-2.46,3.84-6.839,8.718-8.584c3.398-1.224,7.778-1.147,14.501,2.457
				L678.938,531.217z M688.597,559.313c0.929,0.501,1.832,1.819,1.037,3.305c-0.646,1.206-1.907,1.779-3.208,1.084
				c-1.298-0.699-1.85-2.125-1.127-3.471C686.094,558.747,687.622,558.791,688.597,559.313 M693.839,549.528
				c0.883,0.472,1.786,1.79,0.992,3.271c-0.646,1.209-1.911,1.783-3.164,1.114c-1.298-0.69-1.847-2.125-1.126-3.47
				C691.339,548.963,692.867,549.008,693.839,549.528"/>
			<path fill="#1A1A1A" d="M630.737,565.742c0.807-0.438,1.111-0.402,2.026,0.303c2.291,1.766,4.664,3.857,5.298,4.412
				c0.594,0.524,0.955,1.001,0.697,1.336c-0.288,0.377-0.693,0.127-1.028-0.13c-0.539-0.415-1.544-0.922-2.415-1.263
				c-3.789-1.46-6.809,0.133-8.798,2.714c-2.892,3.752-1.763,7.545,0.445,9.242c2.044,1.573,4.441,2.427,9.816,1.058l2.975-0.759
				c7.118-1.821,11.251-1.161,14.629,1.438c4.581,3.534,4.919,9.906,0.456,15.701c-2.089,2.699-3.855,4.131-4.98,4.987
				c-0.37,0.314-0.658,0.423-0.949,0.201c-0.542-0.415-1.62-1.517-4.87-4.021c-0.915-0.705-1.153-1.084-0.897-1.422
				c0.225-0.291,0.571-0.219,1.072,0.163c0.373,0.29,1.825,1.076,3.582,1.041c1.274-0.021,3.455-0.262,5.544-2.973
				c2.373-3.085,2.026-6.335-0.471-8.268c-1.917-1.476-4.113-1.635-9.405-0.206l-1.771,0.494
				c-7.675,2.122-11.933,1.694-15.892-1.354c-2.415-1.864-4.583-4.993-4.231-9.502c0.271-3.111,1.699-5.733,3.396-7.941
				C626.829,568.572,628.565,566.925,630.737,565.742"/>
			<path fill="#1A1A1A" d="M621.428,614.429c5.451,5.846,6.457,6.922,7.681,8.087c1.297,1.235,2.177,1.563,3.697,0.65
				c0.379-0.212,1.072-0.781,1.608-1.285c0.425-0.395,0.727-0.533,0.979-0.265c0.249,0.273,0.053,0.6-0.524,1.127
				c-2.039,1.899-4.571,4.045-5.725,5.12c-0.925,0.859-3.241,3.238-4.626,4.539c-0.577,0.536-0.918,0.711-1.171,0.442
				c-0.251-0.268-0.091-0.563,0.295-0.919c0.423-0.397,0.615-0.649,1.01-1.156c0.856-1.16,0.558-2.104-0.623-3.521
				c-1.068-1.305-2.076-2.383-7.525-8.229l-5.022-5.388c-5.2-5.576-8.504-6.889-11.823-6.666c-3.061,0.189-4.972,1.687-6.28,2.904
				c-1.695,1.579-3.269,4.053-3.376,7.024c-0.143,4.092,2.972,7.663,6.664,11.625l4.486,4.812c5.449,5.846,6.453,6.928,7.681,8.083
				c1.295,1.235,2.177,1.567,3.697,0.655c0.379-0.21,1.07-0.783,1.491-1.18c0.423-0.391,0.725-0.533,0.98-0.26
				c0.249,0.27,0.053,0.595-0.489,1.087c-1.961,1.831-4.492,3.974-4.53,4.009c-0.462,0.433-2.779,2.807-4.278,4.217
				c-0.54,0.5-0.88,0.675-1.133,0.405c-0.252-0.267-0.091-0.56,0.371-0.992c0.424-0.395,0.616-0.648,1.007-1.153
				c0.859-1.16,0.561-2.104-0.618-3.521c-1.07-1.302-2.078-2.381-7.527-8.229l-3.84-4.112c-3.982-4.276-7.79-9.213-7.139-14.994
				c0.542-4.895,2.919-7.896,5.42-10.229c2.038-1.905,5.843-5.229,11.018-5.31c3.61-0.062,7.728,1.423,12.93,7.005L621.428,614.429z
				 M621.502,644.131c0.717,0.772,1.146,2.314-0.086,3.458c-0.998,0.933-2.383,1.072-3.387-0.01
				c-1.005-1.072-1.064-2.604,0.056-3.645C619.313,642.792,620.746,643.324,621.502,644.131 M629.617,636.563
				c0.686,0.735,1.114,2.27-0.118,3.423c-0.999,0.931-2.383,1.066-3.352,0.026c-1.005-1.076-1.061-2.604,0.054-3.645
				C627.433,635.224,628.865,635.757,629.617,636.563"/>
			<path fill="#1A1A1A" d="M347.632,696.764c0.519-2.655,0.929-4.771,1.258-6.442c0.228-1.179,0.343-1.769-0.396-1.913
				c-0.934-0.182-4.994,1.016-6.165,1.251c-0.263,0.047-0.528,0.1-0.729,0.059c-0.146-0.027-0.344-0.317-0.284-0.614
				c0.054-0.299,0.351-0.494,0.624-0.598c0.216-0.057,10.867-4.409,12.837-5.358c0.5-0.206,1.012-0.468,1.406-0.388
				c0.441,0.083,0.481,0.655,0.385,1.149c-0.074,0.389-1.322,5.2-2.787,12.728l-1.772,9.097c-0.922,4.726-1.734,8.906-1.961,11.104
				c-0.158,1.604-0.056,2.393,1.451,3.037c0.707,0.297,2.792,0.854,3.188,0.931c0.197,0.035,0.412,0.234,0.345,0.578
				c-0.066,0.344-0.332,0.396-0.873,0.29c-3.738-0.729-6.857-1.487-8.184-1.748c-1.132-0.22-5.29-0.874-8.439-1.493
				c-0.542-0.104-0.817-0.261-0.748-0.607c0.067-0.341,0.289-0.451,0.487-0.412c0.541,0.104,3.08,0.444,4.001,0.424
				c1.642-0.041,2.021-0.679,2.477-2.225c0.617-2.126,1.531-6.286,2.401-11.018L347.632,696.764z"/>
			<path fill="#1A1A1A" d="M395.776,700.515c-0.894,14.001-13.704,22.025-20.093,24.528c-0.257,0.134-0.511,0.167-0.912,0.143
				c-0.199-0.012-0.434-0.276-0.418-0.524c0.022-0.353,0.393-0.628,0.653-0.813c5.405-2.82,13.727-10.524,14.478-22.327
				c0.566-8.853-2.936-12.989-6.788-13.235c-3.602-0.231-6.203,2.813-6.476,7.067c-0.489,7.653,4.349,9.763,6.048,9.875
				c1.751,0.113,2.771-0.127,3.44-0.385c0.57-0.264,0.835-0.501,1.036-0.485c0.2,0.012,0.387,0.225,0.372,0.474
				c-0.007,0.157-0.178,0.441-0.284,0.534c-1.55,1.46-4.197,2.047-6.75,1.884c-7.2-0.46-9.854-6.098-9.584-10.303
				c0.43-6.75,5.841-11.325,13.543-10.836C392.189,686.633,396.257,692.914,395.776,700.515"/>
			<path fill="#1A1A1A" d="M429.234,698.917c0.892,14.002-10.801,23.586-16.815,26.878c-0.24,0.17-0.489,0.234-0.887,0.258
				c-0.201,0.012-0.468-0.219-0.482-0.47c-0.024-0.35,0.308-0.674,0.545-0.89c5.002-3.479,12.279-12.175,11.529-23.982
				c-0.565-8.854-4.566-12.514-8.418-12.268c-3.597,0.231-5.793,3.583-5.526,7.834c0.492,7.65,5.553,9.138,7.254,9.031
				c1.751-0.111,2.731-0.482,3.363-0.817c0.53-0.335,0.767-0.604,0.966-0.616c0.198-0.012,0.415,0.175,0.43,0.424
				c0.009,0.151-0.122,0.459-0.217,0.568c-1.354,1.645-3.901,2.558-6.453,2.718c-7.203,0.459-10.549-4.8-10.815-9
				c-0.433-6.752,4.358-11.973,12.06-12.465C423.915,685.596,428.751,691.317,429.234,698.917"/>
			<path fill="#1A1A1A" d="M442.523,722.163c-0.347,0.071-0.747-0.157-0.823-0.554c-0.078-0.392,0.328-0.931,0.734-1.468
				c5.703-7.392,13.994-16.972,11.974-27.349c-1.515-7.771-6.102-8.51-8.561-8.033c-2.112,0.412-3.662,1.12-4.868,2.789
				c-0.957,1.356-1.396,3.845-1.144,5.129c0.095,0.489,0.035,0.963-0.46,1.058c-0.242,0.047-0.459-0.267-0.622-0.851
				c-0.136-0.436-1.179-4.471-1.457-5.896c-0.083-0.444-0.074-0.648,0.399-1.099c1.725-1.355,4.208-2.76,8.536-3.604
				c8.656-1.688,13.267,2.316,14.39,8.072c1.857,9.537-7.094,19.908-12.451,26.21c-0.211,0.246-0.083,0.377,0.163,0.326l3.345-0.648
				c0.836-0.166,6.632-1.343,8.403-1.946c3.316-1.053,4.613-3.041,4.753-5.467c0.032-0.62,0.14-0.849,0.436-0.901
				c0.348-0.071,0.48,0.365,0.575,0.856c0.157,0.785,0.112,5.541-0.053,7.31c-0.137,1.408-0.893,1.703-3.992,2.306L442.523,722.163z
				"/>
		</g>
		<g>
			<path fill="#92080F" d="M400.001,44.956C203.917,44.956,44.958,203.913,44.958,400c0,196.084,158.958,355.041,355.042,355.041
				c196.083,0,355.043-158.957,355.043-355.041C755.044,203.913,596.084,44.956,400.001,44.956 M400.001,740.249
				C212.086,740.249,59.752,587.916,59.752,400c0-187.915,152.334-340.246,340.249-340.246S740.253,212.085,740.253,400
				C740.253,587.916,587.916,740.249,400.001,740.249"/>
			<path fill="#92080F" d="M400.001,133.715c-147.064,0-266.282,119.222-266.282,266.285c0,147.066,119.218,266.282,266.282,266.282
				c147.063,0,266.281-119.216,266.281-266.282C666.282,252.937,547.063,133.715,400.001,133.715 M400.001,651.488
				c-138.893,0-251.488-112.595-251.488-251.488c0-138.896,112.595-251.49,251.488-251.49S651.488,261.104,651.488,400
				C651.488,538.894,538.894,651.488,400.001,651.488"/>
			<path fill="#92080F" d="M636.696,399.997c0,130.729-105.975,236.695-236.695,236.695c-130.723,0-236.696-105.967-236.696-236.695
				c0-130.719,105.973-236.692,236.696-236.692C530.722,163.305,636.696,269.278,636.696,399.997"/>
			<path fill="#92080F" d="M540.88,658.738c0-7.011,4.873-16.766,16.758-16.766c9.45,0,16.764,6.096,16.764,15.851
				c0,9.757-6.703,17.677-17.068,17.677C545.753,675.5,540.88,666.359,540.88,658.738"/>
			<path fill="#92080F" d="M225.601,658.738c0-7.011,4.873-16.766,16.764-16.766c9.446,0,16.761,6.096,16.761,15.851
				c0,9.757-6.704,17.677-17.068,17.677C230.474,675.5,225.601,666.359,225.601,658.738"/>
		</g>
		<g>
			<path fill="#FFFFFF" d="M387.111,366.695h-7.522c-2.522,0-4.566-2.045-4.566-4.563V271.35c0-2.519,2.044-4.566,4.566-4.566h7.522
				c2.521,0,4.563,2.048,4.563,4.566v90.782C391.675,364.65,389.632,366.695,387.111,366.695"/>
			<path fill="#FFFFFF" d="M401.885,316.74h-3.762c-1.262,0-2.283-1.021-2.283-2.281v-95.346c0-1.259,1.021-2.284,2.283-2.284h3.762
				c1.259,0,2.278,1.025,2.278,2.284v95.346C404.163,315.719,403.144,316.74,401.885,316.74"/>
			<path fill="#FFFFFF" d="M420.416,366.695h-7.526c-2.519,0-4.563-2.045-4.563-4.563V271.35c0-2.519,2.045-4.566,4.563-4.566h7.526
				c2.519,0,4.563,2.048,4.563,4.566v90.782C424.979,364.65,422.935,366.695,420.416,366.695"/>
			<path fill="#FFFFFF" d="M493.396,312.492L493.396,312.492l37.596-37.596c0.812-0.814,0.812-2.134,0-2.942l-2.942-2.945
				c-0.813-0.813-2.133-0.813-2.948,0l-37.592,37.599c-1.624-1.627-4.261-1.627-5.888,0l-47.098,47.098
				c-1.624,1.627-1.624,4.261,0,5.888l5.887,5.882c1.624,1.63,4.262,1.63,5.886,0l47.1-47.095
				C495.022,316.753,495.022,314.118,493.396,312.492"/>
			<path fill="#FFFFFF" d="M433.303,387.11v-7.528c0-2.52,2.047-4.563,4.565-4.563h90.779c2.522,0,4.569,2.044,4.569,4.563v7.528
				c0,2.522-2.047,4.561-4.569,4.561h-90.779C435.35,391.671,433.303,389.633,433.303,387.11"/>
			<path fill="#FFFFFF" d="M483.256,401.882v-3.767c0-1.259,1.025-2.278,2.285-2.278h95.347c1.259,0,2.28,1.02,2.28,2.278v3.767
				c0,1.26-1.021,2.284-2.28,2.284h-95.347C484.281,404.166,483.256,403.142,483.256,401.882"/>
			<path fill="#FFFFFF" d="M433.303,420.413v-7.523c0-2.521,2.047-4.566,4.565-4.566h90.779c2.522,0,4.569,2.045,4.569,4.566v7.523
				c0,2.521-2.047,4.566-4.569,4.566h-90.779C435.35,424.979,433.303,422.935,433.303,420.413"/>
			<path fill="#FFFFFF" d="M487.509,493.394L487.509,493.394l37.596,37.596c0.812,0.812,2.133,0.812,2.944,0l2.942-2.946
				c0.812-0.808,0.812-2.124,0-2.941l-37.596-37.596c1.625-1.624,1.625-4.261,0-5.883l-47.1-47.1c-1.624-1.627-4.262-1.627-5.886,0
				l-5.887,5.888c-1.624,1.623-1.624,4.261,0,5.881l47.098,47.102C483.248,495.02,485.882,495.02,487.509,493.394"/>
			<path fill="#FFFFFF" d="M412.89,433.302h7.526c2.519,0,4.563,2.045,4.563,4.563v90.786c0,2.519-2.045,4.563-4.563,4.563h-7.526
				c-2.521,0-4.563-2.045-4.563-4.563v-90.786C408.326,435.347,410.368,433.302,412.89,433.302"/>
			<path fill="#FFFFFF" d="M398.12,483.257h3.762c1.262,0,2.281,1.022,2.281,2.285v95.345c0,1.26-1.02,2.281-2.281,2.281h-3.762
				c-1.261,0-2.282-1.021-2.282-2.281v-95.345C395.838,484.279,396.858,483.257,398.12,483.257"/>
			<path fill="#FFFFFF" d="M379.587,433.302h7.523c2.521,0,4.566,2.045,4.566,4.563v90.786c0,2.519-2.044,4.563-4.566,4.563h-7.523
				c-2.52,0-4.563-2.045-4.563-4.563v-90.786C375.024,435.347,377.067,433.302,379.587,433.302"/>
			<path fill="#FFFFFF" d="M306.606,487.506L306.606,487.506l-37.597,37.596c-0.811,0.817-0.811,2.134,0,2.941l2.944,2.946
				c0.815,0.812,2.13,0.812,2.945,0l37.594-37.596c1.626,1.626,4.263,1.626,5.888,0l47.098-47.102c1.625-1.626,1.625-4.258,0-5.881
				l-5.886-5.888c-1.626-1.627-4.261-1.627-5.887,0l-47.098,47.098C304.98,483.245,304.98,485.88,306.606,487.506"/>
			<path fill="#FFFFFF" d="M366.698,412.89v7.526c0,2.519-2.043,4.563-4.563,4.563h-90.783c-2.522,0-4.565-2.045-4.565-4.563v-7.526
				c0-2.524,2.043-4.563,4.565-4.563h90.783C364.655,408.326,366.698,410.365,366.698,412.89"/>
			<path fill="#FFFFFF" d="M316.743,398.115v3.767c0,1.26-1.022,2.278-2.281,2.278h-95.346c-1.261,0-2.283-1.019-2.283-2.278v-3.767
				c0-1.259,1.022-2.281,2.283-2.281h95.346C315.721,395.834,316.743,396.856,316.743,398.115"/>
			<path fill="#FFFFFF" d="M366.698,379.588v7.522c0,2.52-2.043,4.566-4.563,4.566h-90.783c-2.522,0-4.565-2.047-4.565-4.566v-7.522
				c0-2.525,2.043-4.569,4.565-4.569h90.783C364.655,375.019,366.698,377.063,366.698,379.588"/>
			<path fill="#FFFFFF" d="M312.495,306.607L312.495,306.607l-37.598-37.599c-0.812-0.813-2.131-0.813-2.943,0l-2.943,2.945
				c-0.812,0.809-0.812,2.128,0,2.942l37.596,37.596c-1.625,1.626-1.625,4.261,0,5.888l47.098,47.095c1.625,1.63,4.261,1.63,5.887,0
				l5.886-5.885c1.625-1.624,1.625-4.261,0-5.885l-47.098-47.098C316.753,304.98,314.119,304.98,312.495,306.607"/>
		</g>
	</g>
</g>
</svg>
